G04 #@! TF.FileFunction,Soldermask,Bot*
%FSLAX46Y46*%
G04 Gerber Fmt 4.6, Leading zero omitted, Abs format (unit mm)*
G04 Created by KiCad (PCBNEW 4.0.3-stable) date 11/18/16 20:14:28*
%MOMM*%
%LPD*%
G01*
G04 APERTURE LIST*
%ADD10C,0.150000*%
%ADD11C,1.400000*%
%ADD12C,7.300000*%
%ADD13C,2.100000*%
%ADD14R,1.900000X3.900000*%
%ADD15R,3.900000X1.900000*%
%ADD16R,1.900000X4.400000*%
%ADD17R,1.289000X3.321000*%
%ADD18C,1.450000*%
%ADD19C,1.770000*%
%ADD20C,3.900000*%
%ADD21C,2.400000*%
%ADD22C,1.800000*%
%ADD23R,1.770000X1.770000*%
%ADD24R,1.197560X1.197560*%
%ADD25R,1.100000X0.820000*%
%ADD26R,1.100000X0.800000*%
%ADD27C,1.700000*%
%ADD28R,1.600000X1.300000*%
%ADD29R,1.300000X1.600000*%
%ADD30R,1.900000X1.650000*%
%ADD31R,2.400000X2.000000*%
G04 APERTURE END LIST*
D10*
D11*
X281694200Y-107347920D03*
D12*
X211074000Y-113792000D03*
D13*
X263870000Y-192290000D03*
X263870000Y-110290000D03*
D12*
X211455000Y-188595000D03*
D14*
X212582500Y-125812400D03*
D15*
X215582500Y-121112400D03*
D16*
X218582500Y-125812400D03*
D17*
X223499680Y-132679440D03*
X219054680Y-132679440D03*
D18*
X224866200Y-106248200D03*
X223596200Y-106248200D03*
X222326200Y-106248200D03*
X221056200Y-106248200D03*
X219786200Y-106248200D03*
X218516200Y-106248200D03*
X217246200Y-106248200D03*
X215976200Y-106248200D03*
X215976200Y-104978200D03*
X217246200Y-104978200D03*
X218516200Y-104978200D03*
X219786200Y-104978200D03*
X224866200Y-104978200D03*
X223596200Y-104978200D03*
X222326200Y-104978200D03*
X221056200Y-104978200D03*
D19*
X218903000Y-145697500D03*
X221413000Y-146967500D03*
D20*
X212563000Y-145697500D03*
X212573000Y-157132500D03*
D19*
X218883000Y-148237500D03*
X221413000Y-149507500D03*
X218883000Y-150777500D03*
X221423000Y-152047500D03*
X218883000Y-153317500D03*
X221423000Y-154587500D03*
X218873000Y-155857500D03*
D21*
X215623000Y-143667500D03*
X215613000Y-159167500D03*
D22*
X208483000Y-155507500D03*
X208493000Y-144797500D03*
X208503000Y-158047500D03*
X208503000Y-147337500D03*
D23*
X221423000Y-157127500D03*
D18*
X279247600Y-164896800D03*
X279247600Y-166166800D03*
X279247600Y-167436800D03*
X279247600Y-168706800D03*
X279247600Y-169976800D03*
X279247600Y-171246800D03*
X279247600Y-172516800D03*
X279247600Y-173786800D03*
X279247600Y-175056800D03*
X277977600Y-175056800D03*
X277977600Y-173786800D03*
X277977600Y-172516800D03*
X277977600Y-171246800D03*
X277977600Y-169976800D03*
X277977600Y-164896800D03*
X277977600Y-166166800D03*
X277977600Y-167436800D03*
X277977600Y-168706800D03*
X239039400Y-104952800D03*
X237769400Y-104952800D03*
X236499400Y-104952800D03*
X235229400Y-104952800D03*
X233959400Y-104952800D03*
X232689400Y-104952800D03*
X231419400Y-104952800D03*
X230149400Y-104952800D03*
X228879400Y-104952800D03*
X228879400Y-106222800D03*
X230149400Y-106222800D03*
X231419400Y-106222800D03*
X232689400Y-106222800D03*
X233959400Y-106222800D03*
X239039400Y-106222800D03*
X237769400Y-106222800D03*
X236499400Y-106222800D03*
X235229400Y-106222800D03*
X209321400Y-176707800D03*
X209321400Y-177977800D03*
X209321400Y-179247800D03*
X209321400Y-180517800D03*
X209321400Y-181787800D03*
X209321400Y-183057800D03*
X210591400Y-183057800D03*
X210591400Y-181787800D03*
X210591400Y-176707800D03*
X210591400Y-177977800D03*
X210591400Y-179247800D03*
X210591400Y-180517800D03*
X223062800Y-199237600D03*
X221792800Y-199237600D03*
X220522800Y-199237600D03*
X219252800Y-199237600D03*
X217982800Y-199237600D03*
X216712800Y-199237600D03*
X216712800Y-197967600D03*
X217982800Y-197967600D03*
X223062800Y-197967600D03*
X221792800Y-197967600D03*
X220522800Y-197967600D03*
X219252800Y-197967600D03*
X252603000Y-199517000D03*
X251333000Y-199517000D03*
X250063000Y-199517000D03*
X248793000Y-199517000D03*
X247523000Y-199517000D03*
X246253000Y-199517000D03*
X246253000Y-198247000D03*
X247523000Y-198247000D03*
X252603000Y-198247000D03*
X251333000Y-198247000D03*
X250063000Y-198247000D03*
X248793000Y-198247000D03*
X279095200Y-119227600D03*
X279095200Y-120497600D03*
X279095200Y-121767600D03*
X279095200Y-123037600D03*
X279095200Y-124307600D03*
X279095200Y-125577600D03*
X279095200Y-126847600D03*
X279095200Y-128117600D03*
X279095200Y-129387600D03*
X279095200Y-130657600D03*
X279095200Y-131927600D03*
X279095200Y-133197600D03*
X279095200Y-134467600D03*
X279095200Y-135737600D03*
X279095200Y-137007600D03*
X279095200Y-138277600D03*
X279095200Y-139547600D03*
X279095200Y-140817600D03*
X279095200Y-142087600D03*
X279095200Y-143357600D03*
X277825200Y-131927600D03*
X277825200Y-133197600D03*
X277825200Y-134467600D03*
X277825200Y-135737600D03*
X277825200Y-137007600D03*
X277825200Y-138277600D03*
X277825200Y-139547600D03*
X277825200Y-140817600D03*
X277825200Y-142087600D03*
X277825200Y-143357600D03*
X277825200Y-130657600D03*
X277825200Y-129387600D03*
X277825200Y-128117600D03*
X277825200Y-126847600D03*
X277825200Y-125577600D03*
X277825200Y-124307600D03*
X277825200Y-119227600D03*
X277825200Y-120497600D03*
X277825200Y-121767600D03*
X277825200Y-123037600D03*
X279273000Y-162661600D03*
X279273000Y-161391600D03*
X279273000Y-160121600D03*
X279273000Y-158851600D03*
X279273000Y-157581600D03*
X278003000Y-157581600D03*
X278003000Y-162661600D03*
X278003000Y-161391600D03*
X278003000Y-160121600D03*
X278003000Y-158851600D03*
X278003000Y-177292000D03*
X278003000Y-178562000D03*
X278003000Y-179832000D03*
X278003000Y-181102000D03*
X279273000Y-177292000D03*
X279273000Y-178562000D03*
X279273000Y-179832000D03*
X279273000Y-181102000D03*
D11*
X272050000Y-160900000D03*
X270690000Y-160910000D03*
X273670000Y-158050000D03*
X275070000Y-158050000D03*
X273780000Y-163810000D03*
X274740000Y-160960000D03*
X252980000Y-138650000D03*
X282290000Y-160230000D03*
X272340000Y-158060000D03*
X271000000Y-158060000D03*
X269650000Y-158050000D03*
X277380000Y-154260000D03*
X276020000Y-154280000D03*
X274540000Y-154260000D03*
X273050000Y-154280000D03*
X271590000Y-154260000D03*
X256610000Y-154310000D03*
X257920000Y-154310000D03*
X257880000Y-152800000D03*
X256580000Y-152800000D03*
X282290000Y-158470000D03*
X272190000Y-163840000D03*
X270440000Y-183700000D03*
X269514800Y-167077600D03*
X270774800Y-167097600D03*
X272054800Y-167127600D03*
X273324800Y-167127600D03*
X270080000Y-154180000D03*
X249630000Y-167160000D03*
X248390000Y-156260000D03*
X249810000Y-156250000D03*
X251140000Y-156240000D03*
X252450000Y-156250000D03*
X253720000Y-156230000D03*
X255300000Y-154270000D03*
X255290000Y-152850000D03*
X253920000Y-152870000D03*
X249590000Y-146820000D03*
X250930000Y-146800000D03*
X252250000Y-146810000D03*
X253570000Y-146820000D03*
X254870000Y-146820000D03*
X256160000Y-146830000D03*
X257450000Y-146810000D03*
X247400000Y-140870000D03*
X249010000Y-140850000D03*
X250390000Y-140860000D03*
X251800000Y-140850000D03*
X253170000Y-140820000D03*
X254570000Y-140840000D03*
X255940000Y-140810000D03*
X257230000Y-140810000D03*
X256920000Y-189170000D03*
X270180000Y-152500000D03*
X271600000Y-152500000D03*
X273050000Y-152530000D03*
X274490000Y-152520000D03*
X275950000Y-152540000D03*
X277410000Y-152590000D03*
X269920400Y-149293800D03*
X271850400Y-149313800D03*
X273740400Y-149313800D03*
X275600400Y-149323800D03*
X277440400Y-149393800D03*
X269902200Y-146670000D03*
X271752200Y-146740000D03*
X255910000Y-190530000D03*
X255850000Y-192250000D03*
X255680000Y-193850000D03*
X255680000Y-195710000D03*
X257610000Y-195730000D03*
X260400000Y-195710000D03*
X258980000Y-195730000D03*
X273582200Y-146780000D03*
X275442200Y-146800000D03*
X277122200Y-146850000D03*
D24*
X250441460Y-107083860D03*
X248942860Y-107083860D03*
D25*
X277435500Y-110308000D03*
X277435500Y-111578000D03*
X277435500Y-112848000D03*
X277435500Y-114118000D03*
D26*
X272115500Y-114128000D03*
D25*
X272115500Y-112858000D03*
X272115500Y-111588000D03*
X272115500Y-110318000D03*
D27*
X283730000Y-148870000D03*
X283730000Y-155370000D03*
X279230000Y-148870000D03*
X279230000Y-155370000D03*
D18*
X279273000Y-183540400D03*
X279273000Y-184810400D03*
X279273000Y-186080400D03*
X279273000Y-187350400D03*
X279273000Y-188620400D03*
X279273000Y-189890400D03*
X279273000Y-191160400D03*
X279273000Y-192430400D03*
X279273000Y-193700400D03*
X279273000Y-194970400D03*
X278003000Y-194970400D03*
X278003000Y-193700400D03*
X278003000Y-192430400D03*
X278003000Y-191160400D03*
X278003000Y-189890400D03*
X278003000Y-188620400D03*
X278003000Y-183540400D03*
X278003000Y-184810400D03*
X278003000Y-186080400D03*
X278003000Y-187350400D03*
X237286800Y-199237600D03*
X242366800Y-199237600D03*
X241096800Y-199237600D03*
X239826800Y-199237600D03*
X238556800Y-199237600D03*
X232638600Y-199212200D03*
X231368600Y-199212200D03*
X230098600Y-199212200D03*
X228828600Y-199212200D03*
X227558600Y-199212200D03*
X227558600Y-197942200D03*
X232638600Y-197942200D03*
X231368600Y-197942200D03*
X230098600Y-197942200D03*
X228828600Y-197942200D03*
X209397600Y-168859200D03*
X209397600Y-170129200D03*
X209397600Y-171399200D03*
X209397600Y-172669200D03*
X209397600Y-173939200D03*
X210667600Y-173939200D03*
X210667600Y-168859200D03*
X210667600Y-170129200D03*
X210667600Y-171399200D03*
X210667600Y-172669200D03*
D28*
X234332960Y-159214820D03*
X232132960Y-159214820D03*
X234302480Y-163451540D03*
X232102480Y-163451540D03*
X228353800Y-163410900D03*
X226153800Y-163410900D03*
X227449560Y-150512780D03*
X225249560Y-150512780D03*
D29*
X212958680Y-140137060D03*
X212958680Y-137937060D03*
D28*
X218991000Y-140362940D03*
X221191000Y-140362940D03*
X227500360Y-157731460D03*
X225300360Y-157731460D03*
X227401300Y-148805900D03*
X225201300Y-148805900D03*
X274078520Y-108071920D03*
X276278520Y-108071920D03*
D29*
X210921600Y-140137060D03*
X210921600Y-137937060D03*
D28*
X274042960Y-105323640D03*
X276242960Y-105323640D03*
D29*
X208681320Y-140106580D03*
X208681320Y-137906580D03*
D28*
X246799280Y-107175300D03*
X244599280Y-107175300D03*
X227474960Y-155816300D03*
X225274960Y-155816300D03*
X227495280Y-154023060D03*
X225295280Y-154023060D03*
X227454640Y-152260300D03*
X225254640Y-152260300D03*
X211879000Y-161467800D03*
X214079000Y-161467800D03*
X227414000Y-145122900D03*
X225214000Y-145122900D03*
X227426700Y-147091400D03*
X225226700Y-147091400D03*
X281089280Y-105346500D03*
X278889280Y-105346500D03*
D30*
X280133740Y-110357920D03*
X282633740Y-110357920D03*
D31*
X218865700Y-136956800D03*
X222865700Y-136956800D03*
M02*
