M48
;DRILL file {KiCad 4.0.3-stable} date 11/18/16 20:14:38
;FORMAT={2:4/ absolute / inch / suppress leading zeros}
FMAT,2
INCH,TZ
T1C0.012
T2C0.020
T3C0.028
T4C0.030
T5C0.035
T6C0.039
T7C0.040
T8C0.063
T9C0.065
T10C0.128
T11C0.268
%
G90
G05
M72
T1
X81480Y-71850
X82660Y-52830
X83220Y-52290
X84570Y-55030
X89720Y-79030
X90060Y-55720
X90310Y-54360
X90610Y-58050
X90660Y-54180
X90840Y-57200
X91110Y-56470
X91420Y-53330
X94640Y-49040
X94742Y-79063
X94890Y-49270
X95180Y-49530
X95460Y-49770
X95740Y-50060
X96230Y-77610
X96270Y-77130
X96440Y-78080
X96720Y-50110
X96970Y-49920
X97200Y-44190
X97210Y-49720
X97310Y-77020
X97450Y-49520
X97710Y-49330
X97720Y-77040
X97960Y-49140
X98220Y-48950
X98460Y-48740
X98700Y-48540
X98730Y-76820
X98930Y-48320
X99150Y-48100
X99400Y-47900
X99660Y-47730
X99880Y-47500
X100140Y-47310
X100710Y-67570
X100720Y-67910
X100730Y-67210
X100730Y-68240
X100730Y-68590
X100740Y-68950
X100770Y-69310
X100820Y-69900
X101390Y-78100
X101830Y-73780
X102190Y-78430
X103170Y-65170
X103170Y-65900
X103290Y-69240
X103320Y-62810
X103320Y-71490
X103350Y-78380
X103410Y-67070
X103510Y-72760
X103570Y-46640
X103570Y-51240
X103590Y-69150
X103600Y-51670
X103600Y-67550
X103620Y-68830
X103640Y-68500
X103680Y-47040
X103720Y-67860
X103720Y-68180
X103730Y-47520
X103820Y-48000
X104020Y-45530
X104260Y-60230
X104330Y-67070
X104410Y-62910
X104480Y-62320
X104540Y-72070
X104550Y-65860
X104550Y-71480
X104600Y-64090
X104640Y-74950
X105960Y-67170
X106030Y-46500
X106450Y-64270
X106470Y-76960
X106500Y-69480
X106500Y-69800
X106500Y-70150
X106510Y-70470
X106520Y-70790
X106710Y-56590
X106730Y-56200
X106740Y-55810
X106850Y-66200
X107400Y-66830
X107410Y-67150
X107420Y-66500
X108610Y-65600
X108890Y-65350
X109481Y-42255
X109857Y-44463
X110430Y-49760
X110439Y-44481
X110490Y-60810
X110570Y-66790
X110646Y-64828
X110674Y-63820
X110682Y-42741
X110720Y-66000
X111324Y-69856
X111430Y-50890
X111484Y-65944
X111510Y-62860
X111980Y-49650
X112080Y-63834
T2
X97402Y-55461
X97791Y-61520
X98035Y-55453
X98264Y-57803
X98280Y-65811
X98350Y-61516
X98579Y-55457
X98791Y-57795
X98874Y-61512
X99134Y-55453
X99311Y-57799
X99390Y-61516
X99598Y-54587
X99673Y-55441
X99831Y-57803
X99890Y-61508
X99969Y-60185
X100224Y-55449
X100343Y-57803
X100508Y-60177
X100512Y-60736
X100661Y-76319
X100661Y-77051
X100728Y-75689
X100752Y-75012
X100764Y-55437
X100850Y-57807
X101016Y-60157
X101028Y-60752
X101150Y-74476
X101272Y-55437
X101358Y-57799
X101421Y-77059
X101528Y-60157
X101543Y-60752
X101961Y-77059
X102520Y-77051
X106108Y-65779
X106161Y-62224
X106261Y-57744
X106268Y-58777
X106331Y-60701
X106370Y-60039
X106472Y-72323
X106571Y-63350
X106604Y-65786
X106693Y-62228
X106925Y-60732
X106929Y-60039
X106989Y-57772
X107028Y-58785
X107106Y-63346
X107108Y-65798
X107161Y-64504
X107220Y-62228
X107500Y-60051
X107500Y-60740
X107608Y-65798
X107710Y-57787
X107744Y-62224
X107772Y-58785
X107787Y-64492
X108067Y-60047
X108087Y-60732
X108165Y-63370
X108295Y-62224
X108442Y-57795
X108504Y-58789
X108642Y-60055
X108669Y-60740
X109103Y-57815
X109205Y-60732
X109217Y-60075
X109229Y-58816
X110903Y-42263
X111138Y-62390
X111138Y-63083
T3
X82410Y-69570
X82410Y-70070
X82410Y-70570
X82410Y-71070
X82410Y-71570
X82410Y-72070
X82440Y-66480
X82440Y-66980
X82440Y-67480
X82440Y-67980
X82440Y-68480
X82910Y-69570
X82910Y-70070
X82910Y-70570
X82910Y-71070
X82910Y-71570
X82910Y-72070
X82940Y-66480
X82940Y-66980
X82940Y-67480
X82940Y-67980
X82940Y-68480
X85030Y-41330
X85030Y-41830
X85320Y-77940
X85320Y-78440
X85530Y-41330
X85530Y-41830
X85820Y-77940
X85820Y-78440
X86030Y-41330
X86030Y-41830
X86320Y-77940
X86320Y-78440
X86530Y-41330
X86530Y-41830
X86820Y-77940
X86820Y-78440
X87030Y-41330
X87030Y-41830
X87320Y-77940
X87320Y-78440
X87530Y-41330
X87530Y-41830
X87820Y-77940
X87820Y-78440
X88030Y-41330
X88030Y-41830
X88530Y-41330
X88530Y-41830
X89590Y-77930
X89590Y-78430
X90090Y-77930
X90090Y-78430
X90110Y-41320
X90110Y-41820
X90590Y-77930
X90590Y-78430
X90610Y-41320
X90610Y-41820
X91090Y-77930
X91090Y-78430
X91110Y-41320
X91110Y-41820
X91590Y-77930
X91590Y-78430
X91610Y-41320
X91610Y-41820
X92110Y-41320
X92110Y-41820
X92610Y-41320
X92610Y-41820
X93110Y-41320
X93110Y-41820
X93420Y-78440
X93610Y-41320
X93610Y-41820
X93920Y-78440
X94110Y-41320
X94110Y-41820
X94420Y-78440
X94920Y-78440
X95420Y-78440
X96950Y-78050
X96950Y-78550
X97450Y-78050
X97450Y-78550
X97950Y-78050
X97950Y-78550
X98450Y-78050
X98450Y-78550
X98950Y-78050
X98950Y-78550
X99450Y-78050
X99450Y-78550
X109380Y-46940
X109380Y-47440
X109380Y-47940
X109380Y-48440
X109380Y-48940
X109380Y-49440
X109380Y-49940
X109380Y-50440
X109380Y-50940
X109380Y-51440
X109380Y-51940
X109380Y-52440
X109380Y-52940
X109380Y-53440
X109380Y-53940
X109380Y-54440
X109380Y-54940
X109380Y-55440
X109380Y-55940
X109380Y-56440
X109440Y-64920
X109440Y-65420
X109440Y-65920
X109440Y-66420
X109440Y-66920
X109440Y-67420
X109440Y-67920
X109440Y-68420
X109440Y-68920
X109450Y-62040
X109450Y-62540
X109450Y-63040
X109450Y-63540
X109450Y-64040
X109450Y-69800
X109450Y-70300
X109450Y-70800
X109450Y-71300
X109450Y-72260
X109450Y-72760
X109450Y-73260
X109450Y-73760
X109450Y-74260
X109450Y-74760
X109450Y-75260
X109450Y-75760
X109450Y-76260
X109450Y-76760
X109880Y-46940
X109880Y-47440
X109880Y-47940
X109880Y-48440
X109880Y-48940
X109880Y-49440
X109880Y-49940
X109880Y-50440
X109880Y-50940
X109880Y-51440
X109880Y-51940
X109880Y-52440
X109880Y-52940
X109880Y-53440
X109880Y-53940
X109880Y-54440
X109880Y-54940
X109880Y-55440
X109880Y-55940
X109880Y-56440
X109940Y-64920
X109940Y-65420
X109940Y-65920
X109940Y-66420
X109940Y-66920
X109940Y-67420
X109940Y-67920
X109940Y-68420
X109940Y-68920
X109950Y-62040
X109950Y-62540
X109950Y-63040
X109950Y-63540
X109950Y-64040
X109950Y-69800
X109950Y-70300
X109950Y-70800
X109950Y-71300
X109950Y-72260
X109950Y-72760
X109950Y-73260
X109950Y-73760
X109950Y-74260
X109950Y-74760
X109950Y-75260
X109950Y-75760
X109950Y-76260
X109950Y-76760
T4
X109933Y-58610
X109933Y-61169
X111705Y-58610
X111705Y-61169
T5
X86170Y-61361
X86174Y-58361
X86174Y-59361
X86174Y-60361
X86182Y-57361
X87170Y-57861
X87170Y-58861
X87174Y-59861
X87174Y-60861
X87174Y-61861
T7
X82080Y-61223
X82084Y-57007
X82088Y-58007
X82088Y-62223
T8
X84887Y-62664
X84891Y-56562
T9
X103886Y-43421
X103886Y-75705
T10
X83686Y-57361
X83690Y-61863
T11
X83100Y-44800
X83250Y-74250
T6
X83694Y-49139G85X83694Y-49926
G05
X85269Y-47682G85X84481Y-47682
G05
X86056Y-49040G85X86056Y-50025
G05
T0
M30
