G04 #@! TF.FileFunction,Paste,Bot*
%FSLAX46Y46*%
G04 Gerber Fmt 4.6, Leading zero omitted, Abs format (unit mm)*
G04 Created by KiCad (PCBNEW 4.0.3-stable) date 11/18/16 20:14:28*
%MOMM*%
%LPD*%
G01*
G04 APERTURE LIST*
%ADD10C,0.150000*%
%ADD11R,0.889000X2.921000*%
%ADD12R,0.797560X0.797560*%
%ADD13R,0.700000X0.420000*%
%ADD14R,0.700000X0.400000*%
%ADD15R,1.200000X0.900000*%
%ADD16R,0.900000X1.200000*%
%ADD17R,1.500000X1.250000*%
%ADD18R,2.000000X1.600000*%
G04 APERTURE END LIST*
D10*
D11*
X223499680Y-132679440D03*
X219054680Y-132679440D03*
D12*
X250441460Y-107083860D03*
X248942860Y-107083860D03*
D13*
X277435500Y-110308000D03*
X277435500Y-111578000D03*
X277435500Y-112848000D03*
X277435500Y-114118000D03*
D14*
X272115500Y-114128000D03*
D13*
X272115500Y-112858000D03*
X272115500Y-111588000D03*
X272115500Y-110318000D03*
D15*
X234332960Y-159214820D03*
X232132960Y-159214820D03*
X234302480Y-163451540D03*
X232102480Y-163451540D03*
X228353800Y-163410900D03*
X226153800Y-163410900D03*
X227449560Y-150512780D03*
X225249560Y-150512780D03*
D16*
X212958680Y-140137060D03*
X212958680Y-137937060D03*
D15*
X218991000Y-140362940D03*
X221191000Y-140362940D03*
X227500360Y-157731460D03*
X225300360Y-157731460D03*
X227401300Y-148805900D03*
X225201300Y-148805900D03*
X274078520Y-108071920D03*
X276278520Y-108071920D03*
D16*
X210921600Y-140137060D03*
X210921600Y-137937060D03*
D15*
X274042960Y-105323640D03*
X276242960Y-105323640D03*
D16*
X208681320Y-140106580D03*
X208681320Y-137906580D03*
D15*
X246799280Y-107175300D03*
X244599280Y-107175300D03*
X227474960Y-155816300D03*
X225274960Y-155816300D03*
X227495280Y-154023060D03*
X225295280Y-154023060D03*
X227454640Y-152260300D03*
X225254640Y-152260300D03*
X211879000Y-161467800D03*
X214079000Y-161467800D03*
X227414000Y-145122900D03*
X225214000Y-145122900D03*
X227426700Y-147091400D03*
X225226700Y-147091400D03*
X281089280Y-105346500D03*
X278889280Y-105346500D03*
D17*
X280133740Y-110357920D03*
X282633740Y-110357920D03*
D18*
X218865700Y-136956800D03*
X222865700Y-136956800D03*
M02*
