G04 #@! TF.FileFunction,Paste,Top*
%FSLAX46Y46*%
G04 Gerber Fmt 4.6, Leading zero omitted, Abs format (unit mm)*
G04 Created by KiCad (PCBNEW 4.0.3-stable) date 11/18/16 20:14:28*
%MOMM*%
%LPD*%
G01*
G04 APERTURE LIST*
%ADD10C,0.150000*%
%ADD11R,5.150000X3.000000*%
%ADD12R,2.000000X0.350000*%
%ADD13R,0.900000X1.200000*%
%ADD14R,1.200000X0.900000*%
G04 APERTURE END LIST*
D10*
D11*
X264600000Y-107300000D03*
D12*
X267370000Y-162790000D03*
X267370000Y-163290000D03*
X267370000Y-164290000D03*
X267370000Y-163790000D03*
X267370000Y-165790000D03*
X267370000Y-166290000D03*
X267370000Y-165290000D03*
X267370000Y-164790000D03*
X267370000Y-168790000D03*
X267370000Y-169290000D03*
X267370000Y-169790000D03*
X267370000Y-167790000D03*
X267370000Y-168290000D03*
X267370000Y-167290000D03*
X267370000Y-166790000D03*
X267370000Y-158790000D03*
X267370000Y-159290000D03*
X267370000Y-160290000D03*
X267370000Y-159790000D03*
X267370000Y-161790000D03*
X267370000Y-162290000D03*
X267370000Y-161290000D03*
X267370000Y-160790000D03*
X267370000Y-156790000D03*
X267370000Y-157290000D03*
X267370000Y-158290000D03*
X267370000Y-157790000D03*
X267370000Y-155790000D03*
X267370000Y-156290000D03*
X267370000Y-155290000D03*
X260370000Y-162540000D03*
X260370000Y-163040000D03*
X260370000Y-164040000D03*
X260370000Y-163540000D03*
X260370000Y-165540000D03*
X260370000Y-166040000D03*
X260370000Y-165040000D03*
X260370000Y-164540000D03*
X260370000Y-168540000D03*
X260370000Y-169040000D03*
X260370000Y-170040000D03*
X260370000Y-169540000D03*
X260370000Y-167540000D03*
X260370000Y-168040000D03*
X260370000Y-167040000D03*
X260370000Y-166540000D03*
X260370000Y-158540000D03*
X260370000Y-159040000D03*
X260370000Y-160040000D03*
X260370000Y-159540000D03*
X260370000Y-161540000D03*
X260370000Y-162040000D03*
X260370000Y-161040000D03*
X260370000Y-160540000D03*
X260370000Y-156540000D03*
X260370000Y-157040000D03*
X260370000Y-158040000D03*
X260370000Y-157540000D03*
X260370000Y-155540000D03*
X260370000Y-156040000D03*
X260370000Y-155040000D03*
X260370000Y-152540000D03*
X260370000Y-154540000D03*
X267370000Y-170290000D03*
X260370000Y-170540000D03*
X267370000Y-170790000D03*
X260370000Y-171040000D03*
X267370000Y-171290000D03*
X260370000Y-171540000D03*
X267370000Y-171790000D03*
X260370000Y-172040000D03*
X267370000Y-172290000D03*
X260370000Y-172540000D03*
X267370000Y-172790000D03*
X260370000Y-173040000D03*
X267370000Y-173290000D03*
X260370000Y-173540000D03*
X267370000Y-173790000D03*
X260370000Y-174040000D03*
X267370000Y-174290000D03*
X260370000Y-174540000D03*
X267370000Y-174790000D03*
X260370000Y-175040000D03*
X267370000Y-175290000D03*
X260370000Y-175540000D03*
X267370000Y-175790000D03*
X260370000Y-176040000D03*
X267370000Y-176290000D03*
X260370000Y-176540000D03*
X267370000Y-176790000D03*
X260370000Y-177040000D03*
X267370000Y-177290000D03*
X260370000Y-177540000D03*
X267370000Y-177790000D03*
X260370000Y-178040000D03*
X267370000Y-178290000D03*
X260370000Y-178540000D03*
X267370000Y-178790000D03*
X260370000Y-179040000D03*
X267370000Y-179290000D03*
X260370000Y-179540000D03*
X267370000Y-179790000D03*
X260370000Y-180040000D03*
X267370000Y-180290000D03*
X260370000Y-180540000D03*
X267370000Y-180790000D03*
X260370000Y-181040000D03*
X267370000Y-181290000D03*
X260370000Y-181540000D03*
X267370000Y-181790000D03*
X260370000Y-182040000D03*
X267370000Y-182290000D03*
X260370000Y-182540000D03*
X267370000Y-182790000D03*
X260370000Y-183040000D03*
X267370000Y-183290000D03*
X260370000Y-183540000D03*
X267370000Y-183790000D03*
X260370000Y-184040000D03*
X267370000Y-184290000D03*
X260370000Y-184540000D03*
X267370000Y-184790000D03*
X260370000Y-185040000D03*
X267370000Y-185290000D03*
X260370000Y-185540000D03*
X267370000Y-185790000D03*
X260370000Y-186040000D03*
X267370000Y-186290000D03*
X260370000Y-186540000D03*
X267370000Y-186790000D03*
X260370000Y-187040000D03*
X267370000Y-187290000D03*
X260370000Y-187540000D03*
X267370000Y-187790000D03*
X260370000Y-188040000D03*
X267370000Y-188290000D03*
X260370000Y-188540000D03*
X267370000Y-188790000D03*
X260370000Y-189040000D03*
X267370000Y-189290000D03*
X260370000Y-189540000D03*
X267370000Y-189790000D03*
X260370000Y-190040000D03*
X267370000Y-190290000D03*
X260370000Y-190540000D03*
X267370000Y-190790000D03*
X260370000Y-191040000D03*
X267370000Y-191290000D03*
X260370000Y-191540000D03*
X267370000Y-154790000D03*
X267370000Y-152290000D03*
X260370000Y-121540000D03*
X267370000Y-121790000D03*
X260370000Y-122040000D03*
X267370000Y-122290000D03*
X260370000Y-122540000D03*
X267370000Y-122790000D03*
X260370000Y-123040000D03*
X267370000Y-123290000D03*
X260370000Y-123540000D03*
X267370000Y-123790000D03*
X260370000Y-124040000D03*
X267370000Y-124290000D03*
X260370000Y-124540000D03*
X267370000Y-124790000D03*
X260370000Y-125040000D03*
X267370000Y-125290000D03*
X260370000Y-125540000D03*
X267370000Y-125790000D03*
X260370000Y-126040000D03*
X267370000Y-126290000D03*
X260370000Y-126540000D03*
X267370000Y-126790000D03*
X260370000Y-127040000D03*
X267370000Y-127290000D03*
X260370000Y-127540000D03*
X267370000Y-127790000D03*
X260370000Y-128040000D03*
X267370000Y-128290000D03*
X260370000Y-128540000D03*
X267370000Y-128790000D03*
X260370000Y-129040000D03*
X267370000Y-129290000D03*
X260370000Y-129540000D03*
X267370000Y-129790000D03*
X260370000Y-130040000D03*
X267370000Y-130290000D03*
X260370000Y-130540000D03*
X267370000Y-130790000D03*
X260370000Y-131040000D03*
X267370000Y-131290000D03*
X260370000Y-131540000D03*
X267370000Y-131790000D03*
X260370000Y-132040000D03*
X267370000Y-132290000D03*
X260370000Y-132540000D03*
X267370000Y-132790000D03*
X260370000Y-133040000D03*
X267370000Y-133290000D03*
X260370000Y-133540000D03*
X267370000Y-133790000D03*
X260370000Y-134040000D03*
X267370000Y-134290000D03*
X260370000Y-134540000D03*
X267370000Y-134790000D03*
X260370000Y-135040000D03*
X267370000Y-135290000D03*
X260370000Y-135540000D03*
X267370000Y-135790000D03*
X260370000Y-136040000D03*
X267370000Y-136290000D03*
X260370000Y-136540000D03*
X267370000Y-136790000D03*
X260370000Y-137040000D03*
X267370000Y-137290000D03*
X260370000Y-137540000D03*
X267370000Y-137790000D03*
X260370000Y-138040000D03*
X267370000Y-138290000D03*
X260370000Y-138540000D03*
X267370000Y-138790000D03*
X260370000Y-139040000D03*
X267370000Y-139290000D03*
X260370000Y-139540000D03*
X267370000Y-139790000D03*
X260370000Y-140040000D03*
X267370000Y-140290000D03*
X260370000Y-140540000D03*
X267370000Y-140790000D03*
X260370000Y-141040000D03*
X267370000Y-141290000D03*
X260370000Y-141540000D03*
X267370000Y-141790000D03*
X260370000Y-142040000D03*
X267370000Y-142290000D03*
X260370000Y-142540000D03*
X267370000Y-142790000D03*
X260370000Y-143040000D03*
X267370000Y-143290000D03*
X260370000Y-143540000D03*
X267370000Y-143790000D03*
X260370000Y-144040000D03*
X267370000Y-144290000D03*
X260370000Y-144540000D03*
X267370000Y-144790000D03*
X260370000Y-145040000D03*
X267370000Y-145290000D03*
X260370000Y-145540000D03*
X267370000Y-145790000D03*
X260370000Y-146040000D03*
X267370000Y-146290000D03*
X260370000Y-146540000D03*
X267370000Y-146790000D03*
X260370000Y-147040000D03*
X267370000Y-147290000D03*
X260370000Y-147540000D03*
X267370000Y-147790000D03*
X260370000Y-148040000D03*
X267370000Y-148290000D03*
X260370000Y-148540000D03*
X267370000Y-148790000D03*
X260370000Y-149040000D03*
X267370000Y-149290000D03*
X260370000Y-149540000D03*
X267370000Y-149790000D03*
X260370000Y-150040000D03*
X267370000Y-150290000D03*
X260370000Y-150540000D03*
X267370000Y-150790000D03*
X260370000Y-151040000D03*
X267370000Y-151290000D03*
X260370000Y-151540000D03*
X267370000Y-151790000D03*
X260370000Y-152040000D03*
X260370000Y-111540000D03*
X260370000Y-112040000D03*
X260370000Y-112540000D03*
X260370000Y-113040000D03*
X260370000Y-113540000D03*
X260370000Y-114040000D03*
X260370000Y-114540000D03*
X260370000Y-115040000D03*
X260370000Y-115540000D03*
X260370000Y-116040000D03*
X260370000Y-116540000D03*
X260370000Y-117040000D03*
X260370000Y-117540000D03*
X260370000Y-118040000D03*
X260370000Y-118540000D03*
X260370000Y-119040000D03*
X260370000Y-119540000D03*
X260370000Y-120040000D03*
X260370000Y-120540000D03*
X260370000Y-121040000D03*
X267370000Y-111790000D03*
X267370000Y-112290000D03*
X267370000Y-112790000D03*
X267370000Y-113290000D03*
X267370000Y-113790000D03*
X267370000Y-114290000D03*
X267370000Y-114790000D03*
X267370000Y-115290000D03*
X267370000Y-115790000D03*
X267370000Y-116290000D03*
X267370000Y-116790000D03*
X267370000Y-117290000D03*
X267370000Y-117790000D03*
X267370000Y-118290000D03*
X267370000Y-118790000D03*
X267370000Y-119290000D03*
X267370000Y-119790000D03*
X267370000Y-120290000D03*
X267370000Y-120790000D03*
X267370000Y-121290000D03*
D11*
X264610000Y-195290000D03*
D13*
X281940000Y-153246000D03*
X281940000Y-151046000D03*
D14*
X274927240Y-173657260D03*
X272727240Y-173657260D03*
M02*
